<svg width="61" height="56" viewBox="0 0 61 56" fill="none" xmlns="http://www.w3.org/2000/svg">
<path d="M45.1637 42.9637C44.9528 43.1496 44.6973 43.2899 44.3993 43.386L44.0986 43.4659C44.0986 43.4659 3.55295 57.9404 0.400263 55.1408C-2.75243 52.3411 13.7543 16.5195 13.7543 16.5195L13.8457 16.2538C13.9554 15.9904 14.1149 15.7649 14.3258 15.579C16.848 13.3555 25.7966 17.6828 34.3121 25.2448C42.8276 32.8068 47.6859 40.7402 45.1637 42.9637Z" fill="url(#paint0_linear_172_869)"/>
<path d="M42.6421 43.9797C38.8404 45.3116 35.023 46.6081 31.1906 47.8689C28.1049 48.8839 24.73 49.9649 21.3788 50.9837C18.4502 51.8741 15.5392 52.7188 12.8569 53.4304C11.014 52.0601 9.18255 50.5738 7.38828 48.9805C5.594 47.3872 3.921 45.7612 2.37891 44.1257C3.19298 41.7551 4.15819 39.1824 5.17532 36.5946C6.33897 33.6331 7.57306 30.651 8.73133 27.9246C10.1704 24.5383 11.6496 21.1655 13.1687 17.8066C18.6089 20.4169 24.4223 24.2771 29.8961 29.1381C35.3701 33.9991 39.7118 39.1567 42.6421 43.9797Z" fill="url(#paint1_linear_172_869)"/>
<path d="M45.163 42.9629C44.9526 43.1494 44.6965 43.289 44.3986 43.3857L44.0983 43.465C44.0983 43.465 43.5741 43.6521 42.6407 43.9796C38.839 45.3115 35.0217 46.608 31.1892 47.8689C28.1035 48.8838 24.7286 49.9648 21.3774 50.9836C18.4646 49.0398 15.5451 46.7943 12.7162 44.2822C9.88738 41.7701 7.36021 39.1787 5.17383 36.5945C6.33747 33.633 7.57156 30.6509 8.72984 27.9245C10.1689 24.5382 11.6481 21.1654 13.1672 17.8066C13.5408 16.9819 13.7542 16.5188 13.7542 16.5188L13.8449 16.2533C13.9554 15.9901 14.114 15.764 14.3256 15.5785C16.8479 13.3549 25.7956 17.6826 34.3118 25.2439C42.8268 32.8066 47.6853 40.7392 45.163 42.9629Z" fill="url(#paint2_linear_172_869)"/>
<path d="M45.1635 42.9632C44.9531 43.1498 44.697 43.2894 44.3992 43.3861L44.0988 43.4654C44.0988 43.4654 43.5746 43.6525 42.6412 43.98C38.8396 45.3119 35.0222 46.6084 31.1897 47.8693C27.0833 45.4764 22.8767 42.4441 18.8543 38.872C14.8318 35.2999 11.4199 31.567 8.73047 27.925C10.1695 24.5387 11.6487 21.1659 13.1678 17.8071C13.5414 16.9824 13.7548 16.5193 13.7548 16.5193L13.8455 16.2538C13.9561 15.9906 14.1146 15.7645 14.3262 15.579C16.8485 13.3554 25.7963 17.683 34.3124 25.2444C42.8273 32.807 47.6858 40.7396 45.1635 42.9632Z" fill="url(#paint3_linear_172_869)"/>
<path d="M45.1626 42.9639C42.64 45.1878 33.6915 40.8605 25.176 33.2984C16.6604 25.7363 11.8021 17.8033 14.3247 15.5792C16.8474 13.3552 25.7959 17.6826 34.3114 25.2447C42.8269 32.8068 47.6853 40.7399 45.1626 42.9639Z" fill="url(#paint4_linear_172_869)"/>
<path d="M43.5917 40.925C41.7281 42.568 34.1803 38.5389 26.7335 31.926C19.2867 25.313 14.7606 18.6203 16.6242 16.9773C18.4878 15.3343 26.0356 19.3633 33.4824 25.9763C40.9293 32.5892 45.4555 39.282 43.5917 40.925Z" fill="url(#paint5_linear_172_869)"/>
<path d="M45.164 42.9633C47.6862 40.7398 42.8281 32.8065 34.3124 25.2446C29.3192 20.8105 24.1777 17.4894 20.2695 15.9482C20.4254 16.2022 20.5967 16.4484 20.7827 16.6859C21.0919 17.0806 21.4539 17.4404 21.8615 17.7648L24.0238 19.6913C23.8042 19.7796 23.5804 19.8594 23.353 19.9306C23.1863 19.9826 23.0465 20.0861 22.9593 20.2221C22.8721 20.3581 22.8434 20.5174 22.8785 20.6707L23.6437 24.0337C23.6755 24.1737 23.7471 24.3043 23.8517 24.4131C23.9563 24.5219 24.0905 24.6053 24.2417 24.6555L45.0017 43.0908C45.0584 43.0511 45.1126 43.0087 45.164 42.9633Z" fill="url(#paint6_linear_172_869)"/>
<path d="M31.3605 32.5152L33.484 34.7613L43.3759 43.5454C44.1319 43.5266 44.7394 43.3386 45.164 42.9642C47.3685 41.0207 43.9365 34.7177 37.3532 28.1123C35.2798 28.8781 33.3261 29.8763 31.5402 31.0826C31.0299 31.4271 30.9487 32.0796 31.3605 32.5152Z" fill="url(#paint7_linear_172_869)"/>
<path d="M33.484 34.7607L31.3605 32.5147C30.9487 32.0791 31.03 31.4266 31.5401 31.082C38.121 26.6365 46.6811 25.1926 54.6757 27.227C56.6789 27.7358 58.6065 28.4537 60.4179 29.3657C60.9758 29.6468 61.1546 30.2843 60.8118 30.7646L59.0452 33.2408C58.7249 33.6897 58.0642 33.8364 57.5408 33.5769C56.1491 32.8879 54.6721 32.3434 53.1393 31.9542C46.8871 30.3632 40.1956 31.4733 35.0254 34.9168C34.5461 35.2359 33.8688 35.1677 33.484 34.7607Z" fill="url(#paint8_linear_172_869)"/>
<path d="M15.1339 11.4429L13.2057 9.68758C12.3318 8.89192 12.0687 7.61117 12.579 6.63734C13.1715 5.50661 14.5934 5.1752 15.7387 5.90088C16.7251 6.52594 17.2092 7.75514 16.8917 8.8285L16.1913 11.1965C16.0676 11.615 15.4746 11.7532 15.1339 11.4429Z" fill="url(#paint9_linear_172_869)"/>
<path d="M11.7228 13.3492L8.98503 12.9972C7.74411 12.8377 6.65323 11.9642 6.38704 10.9169C6.07794 9.7009 6.97696 8.67142 8.38474 8.62926C9.59726 8.59291 10.8278 9.3063 11.3155 10.3285L12.3914 12.5837C12.5816 12.9821 12.2066 13.4115 11.7228 13.3492Z" fill="url(#paint10_linear_172_869)"/>
<path d="M48.3787 41.5075L51.1339 41.2868C52.3827 41.1869 53.6731 41.812 54.2071 42.7759C54.8271 43.895 54.2232 45.0812 52.865 45.4118C51.6952 45.6965 50.311 45.2557 49.5681 44.3618L47.9294 42.3896C47.6399 42.0411 47.8917 41.5464 48.3787 41.5075Z" fill="url(#paint11_linear_172_869)"/>
<path d="M48.8525 37.9628L50.885 36.3021C51.8062 35.5494 53.2599 35.3493 54.3473 35.8255C55.6097 36.3784 55.948 37.6445 55.0988 38.639C54.3675 39.4956 52.9663 39.8925 51.7617 39.5844L49.104 38.9045C48.6345 38.7844 48.4935 38.2563 48.8525 37.9628Z" fill="url(#paint12_linear_172_869)"/>
<path d="M24.864 24.6702C24.3249 24.824 23.7552 24.5253 23.6435 24.0339L22.8783 20.6709C22.8432 20.5177 22.8719 20.3584 22.9591 20.2224C23.0463 20.0864 23.1861 19.9828 23.3528 19.9308C23.7557 19.8052 24.3157 19.5984 24.8945 19.2835C23.1463 18.7729 21.7238 17.8875 20.7826 16.6861C19.0082 14.4211 18.8691 11.868 20.4103 9.85662C21.9355 7.86627 24.7536 6.89525 27.4235 7.44061C30.3423 8.03677 32.3925 10.2964 32.9079 13.4853C32.9293 13.6181 32.9483 13.7502 32.9648 13.8818C33.6809 13.5106 34.2595 13.0527 34.6218 12.5401C35.5391 11.2428 35.6262 9.30684 34.8439 7.60798C34.3473 6.52977 33.5808 5.7052 32.7163 5.29043C32.3306 5.10548 32.1251 4.72166 32.2285 4.34454L33.1051 1.14623C33.2394 0.656402 33.8291 0.3745 34.3611 0.554814C36.8145 1.38618 38.8332 3.23515 39.9922 5.75178C41.4488 8.91461 41.1969 12.5153 39.3349 15.1488C37.8617 17.2324 35.1446 18.7865 32.0029 19.4435C31.2972 20.749 30.241 21.8959 28.8558 22.8356C27.3766 23.8387 25.8441 24.3907 24.864 24.6702ZM25.9537 12.2118C25.5901 12.2113 25.1997 12.3714 25.0118 12.6169C24.7309 12.9833 25.1042 13.5682 25.3516 13.884C25.6909 14.3172 26.481 14.6404 27.4762 14.7852C27.4611 14.5832 27.4372 14.3819 27.4045 14.1816C27.2269 13.0829 26.7665 12.3546 26.173 12.2334C26.101 12.2189 26.0275 12.2117 25.9537 12.2118Z" fill="url(#paint13_radial_172_869)"/>
<path d="M36.9489 17.4205L32.964 13.8818C32.964 13.8818 33.2185 17.2987 32.002 19.4436C33.8547 19.0563 35.5595 18.3566 36.9489 17.4205Z" fill="url(#paint14_linear_172_869)"/>
<path d="M25.3511 13.8837C25.1699 13.6523 24.9222 13.2769 24.9125 12.9484L19.3457 12.9395C19.3544 14.1862 19.8352 15.477 20.7821 16.6858C21.7233 17.8873 23.1457 18.7727 24.8941 19.2832C24.8941 19.2832 27.7471 18.5174 27.4758 14.7849C26.4805 14.6401 25.6905 14.3169 25.3511 13.8837Z" fill="url(#paint15_linear_172_869)"/>
<path d="M37.1554 25.0859C35.8619 25.8321 34.7613 26.8117 33.9256 27.9605C33.7377 28.2187 33.3044 28.2181 33.1177 27.9592C32.2867 26.8077 31.1901 25.8245 29.8997 25.0741C29.6135 24.9078 29.6144 24.5296 29.9011 24.3643C31.1946 23.618 32.2952 22.6384 33.131 21.4896C33.3187 21.2314 33.7521 21.2321 33.9388 21.4909C34.7699 22.6424 35.8665 23.6256 37.1569 24.376C37.4431 24.5423 37.4422 24.9205 37.1554 25.0859Z" fill="url(#paint16_linear_172_869)"/>
<path d="M60.7843 23.5824C59.4908 24.3287 58.3902 25.3083 57.5545 26.4571C57.3668 26.7153 56.9333 26.7147 56.7466 26.4558C55.9156 25.3043 54.819 24.3211 53.5286 23.5707C53.2424 23.4044 53.2433 23.0262 53.5301 22.8609C54.8235 22.1146 55.9241 21.135 56.7599 19.9862C56.9476 19.728 57.381 19.7287 57.5678 19.9875C58.3988 21.139 59.4954 22.1222 60.7858 22.8726C61.072 23.0388 61.0711 23.417 60.7843 23.5824Z" fill="url(#paint17_linear_172_869)"/>
<path d="M49.7199 6.8847C48.4264 7.63091 47.3257 8.61053 46.49 9.75937C46.3022 10.0175 45.8689 10.0169 45.6822 9.75807C44.8512 8.60652 43.7545 7.62334 42.4641 6.87294C42.178 6.70665 42.1788 6.32844 42.4656 6.16312C43.759 5.41687 44.8597 4.43726 45.6954 3.28844C45.8831 3.03027 46.3166 3.03091 46.5033 3.28974C47.3343 4.44126 48.4309 5.42444 49.7213 6.17487C50.0075 6.34117 50.0067 6.71937 49.7199 6.8847Z" fill="url(#paint18_linear_172_869)"/>
<path d="M48.5214 18.3991C47.5785 18.9431 46.7762 19.6572 46.1669 20.4946C46.03 20.6828 45.7141 20.6823 45.5781 20.4937C44.9723 19.6542 44.1729 18.9375 43.2323 18.3905C43.0237 18.2693 43.0242 17.9936 43.2334 17.8731C44.1762 17.3291 44.9786 16.615 45.5878 15.7776C45.7247 15.5894 46.0406 15.5898 46.1767 15.7785C46.7824 16.618 47.5818 17.3347 48.5225 17.8817C48.7311 18.0029 48.7305 18.2786 48.5214 18.3991Z" fill="url(#paint19_linear_172_869)"/>
<path d="M52.3573 11.9294C51.4144 12.4734 50.6121 13.1875 50.0028 14.0249C49.866 14.2131 49.55 14.2126 49.414 14.0239C48.8083 13.1845 48.0089 12.4678 47.0682 11.9208C46.8597 11.7996 46.8601 11.5239 47.0693 11.4034C48.0122 10.8594 48.8145 10.1453 49.4238 9.30785C49.5606 9.11966 49.8766 9.12009 50.0126 9.30882C50.6184 10.1482 51.4178 10.8649 52.3584 11.412C52.5669 11.5332 52.5663 11.8088 52.3573 11.9294Z" fill="url(#paint20_linear_172_869)"/>
<defs>
<linearGradient id="paint0_linear_172_869" x1="7.98771" y1="27.4356" x2="23.1852" y2="52.1627" gradientUnits="userSpaceOnUse">
<stop stop-color="#FFE548"/>
<stop offset="0.176" stop-color="#FFDE50"/>
<stop offset="0.445" stop-color="#FFCA65"/>
<stop offset="0.771" stop-color="#FFAA87"/>
<stop offset="1" stop-color="#FF90A4"/>
</linearGradient>
<linearGradient id="paint1_linear_172_869" x1="22.167" y1="45.3737" x2="19.4151" y2="56.4078" gradientUnits="userSpaceOnUse">
<stop stop-color="#FBA5C2" stop-opacity="0"/>
<stop offset="0.386" stop-color="#FCA0BA" stop-opacity="0.386"/>
<stop offset="0.974" stop-color="#FF91A5" stop-opacity="0.974"/>
<stop offset="1" stop-color="#FF90A4"/>
</linearGradient>
<linearGradient id="paint2_linear_172_869" x1="25.6506" y1="38.8952" x2="22.2453" y2="52.8097" gradientUnits="userSpaceOnUse">
<stop stop-color="#FBA5C2" stop-opacity="0"/>
<stop offset="0.386" stop-color="#FCA0BA" stop-opacity="0.386"/>
<stop offset="0.974" stop-color="#FF91A5" stop-opacity="0.974"/>
<stop offset="1" stop-color="#FF90A4"/>
</linearGradient>
<linearGradient id="paint3_linear_172_869" x1="28.4987" y1="31.4542" x2="24.2295" y2="47.3399" gradientUnits="userSpaceOnUse">
<stop stop-color="#FBA5C2" stop-opacity="0"/>
<stop offset="0.386" stop-color="#FCA0BA" stop-opacity="0.386"/>
<stop offset="0.974" stop-color="#FF91A5" stop-opacity="0.974"/>
<stop offset="1" stop-color="#FF90A4"/>
</linearGradient>
<linearGradient id="paint4_linear_172_869" x1="31.5506" y1="25.7255" x2="26.9379" y2="37.5122" gradientUnits="userSpaceOnUse">
<stop stop-color="#FFE548"/>
<stop offset="0.176" stop-color="#FFDE50"/>
<stop offset="0.445" stop-color="#FFCA65"/>
<stop offset="0.771" stop-color="#FFAA87"/>
<stop offset="1" stop-color="#FF90A4"/>
</linearGradient>
<linearGradient id="paint5_linear_172_869" x1="26.1873" y1="34.3173" x2="32.9071" y2="22.6332" gradientUnits="userSpaceOnUse">
<stop stop-color="#FFD00D" stop-opacity="0"/>
<stop offset="1" stop-color="#DB722B"/>
</linearGradient>
<linearGradient id="paint6_linear_172_869" x1="33.6382" y1="29.5173" x2="29.5875" y2="15.5596" gradientUnits="userSpaceOnUse">
<stop stop-color="#FFD00D" stop-opacity="0"/>
<stop offset="1" stop-color="#DB722B"/>
</linearGradient>
<linearGradient id="paint7_linear_172_869" x1="39.6387" y1="37.049" x2="36.2469" y2="30.776" gradientUnits="userSpaceOnUse">
<stop stop-color="#A34A9E" stop-opacity="0"/>
<stop offset="1" stop-color="#343168"/>
</linearGradient>
<linearGradient id="paint8_linear_172_869" x1="45.8726" y1="35.3266" x2="46.0213" y2="26.3146" gradientUnits="userSpaceOnUse">
<stop stop-color="#A34A9E"/>
<stop offset="1" stop-color="#343168"/>
</linearGradient>
<linearGradient id="paint9_linear_172_869" x1="14.0957" y1="8.19499" x2="16.2391" y2="9.24979" gradientUnits="userSpaceOnUse">
<stop stop-color="#3FA9F5"/>
<stop offset="1" stop-color="#666AD6"/>
</linearGradient>
<linearGradient id="paint10_linear_172_869" x1="8.76333" y1="11.277" x2="11.0936" y2="10.6188" gradientUnits="userSpaceOnUse">
<stop stop-color="#A34A9E"/>
<stop offset="1" stop-color="#343168"/>
</linearGradient>
<linearGradient id="paint11_linear_172_869" x1="51.7398" y1="42.8393" x2="46.2974" y2="46.5646" gradientUnits="userSpaceOnUse">
<stop stop-color="#FF4974"/>
<stop offset="0.45" stop-color="#FE4773"/>
<stop offset="0.629" stop-color="#FC406D"/>
<stop offset="0.76" stop-color="#F73464"/>
<stop offset="0.868" stop-color="#F12257"/>
<stop offset="0.961" stop-color="#E80C46"/>
<stop offset="1" stop-color="#E4003D"/>
</linearGradient>
<linearGradient id="paint12_linear_172_869" x1="52.7813" y1="36.4189" x2="50.6027" y2="43.5074" gradientUnits="userSpaceOnUse">
<stop stop-color="#C4F8B6"/>
<stop offset="1" stop-color="#3B8EAC"/>
</linearGradient>
<radialGradient id="paint13_radial_172_869" cx="0" cy="0" r="1" gradientUnits="userSpaceOnUse" gradientTransform="translate(20.2052 4.48538) scale(24.4695 21.6504)">
<stop stop-color="#FF4974"/>
<stop offset="0.45" stop-color="#FE4773"/>
<stop offset="0.629" stop-color="#FC406D"/>
<stop offset="0.76" stop-color="#F73464"/>
<stop offset="0.868" stop-color="#F12257"/>
<stop offset="0.961" stop-color="#E80C46"/>
<stop offset="1" stop-color="#E4003D"/>
</radialGradient>
<linearGradient id="paint14_linear_172_869" x1="37.6654" y1="19.8908" x2="29.5968" y2="13.3224" gradientUnits="userSpaceOnUse">
<stop stop-color="#E4003D" stop-opacity="0"/>
<stop offset="0.343" stop-color="#CD0E2D" stop-opacity="0.343"/>
<stop offset="1" stop-color="#972E07"/>
</linearGradient>
<linearGradient id="paint15_linear_172_869" x1="24.2704" y1="15.8828" x2="26.4611" y2="18.173" gradientUnits="userSpaceOnUse">
<stop stop-color="#E4003D" stop-opacity="0"/>
<stop offset="0.343" stop-color="#CD0E2D" stop-opacity="0.343"/>
<stop offset="1" stop-color="#972E07"/>
</linearGradient>
<linearGradient id="paint16_linear_172_869" x1="32.3219" y1="23.188" x2="35.7841" y2="28.4054" gradientUnits="userSpaceOnUse">
<stop stop-color="#3FA9F5"/>
<stop offset="1" stop-color="#666AD6"/>
</linearGradient>
<linearGradient id="paint17_linear_172_869" x1="55.9477" y1="21.6464" x2="59.4099" y2="26.8638" gradientUnits="userSpaceOnUse">
<stop stop-color="#3FA9F5"/>
<stop offset="1" stop-color="#666AD6"/>
</linearGradient>
<linearGradient id="paint18_linear_172_869" x1="44.8489" y1="4.9667" x2="48.3111" y2="10.184" gradientUnits="userSpaceOnUse">
<stop stop-color="#A34A9E"/>
<stop offset="1" stop-color="#343168"/>
</linearGradient>
<linearGradient id="paint19_linear_172_869" x1="44.9979" y1="16.9808" x2="47.5217" y2="20.7841" gradientUnits="userSpaceOnUse">
<stop stop-color="#C4F8B6"/>
<stop offset="1" stop-color="#3B8EAC"/>
</linearGradient>
<linearGradient id="paint20_linear_172_869" x1="48.8204" y1="10.5048" x2="51.3442" y2="14.3081" gradientUnits="userSpaceOnUse">
<stop stop-color="#FFE548"/>
<stop offset="0.176" stop-color="#FFDE50"/>
<stop offset="0.445" stop-color="#FFCA65"/>
<stop offset="0.771" stop-color="#FFAA87"/>
<stop offset="1" stop-color="#FF90A4"/>
</linearGradient>
</defs>
</svg>
