<svg width="55" height="56" viewBox="0 0 55 56" fill="none" xmlns="http://www.w3.org/2000/svg">
<g clip-path="url(#clip0_3761_8750)">
<path d="M27.5 5.65625C23.0808 5.65625 18.7609 6.96669 15.0865 9.42185C11.4121 11.877 8.54822 15.3666 6.85708 19.4494C5.16593 23.5322 4.72345 28.0248 5.58559 32.3591C6.44773 36.6933 8.57576 40.6746 11.7006 43.7994C14.8254 46.9243 18.8067 49.0523 23.141 49.9144C27.4752 50.7766 31.9678 50.3341 36.0506 48.6429C40.1334 46.9518 43.623 44.0879 46.0782 40.4135C48.5333 36.7391 49.8438 32.4192 49.8438 28C49.8375 22.076 47.4814 16.3964 43.2925 12.2075C39.1036 8.01858 33.424 5.66251 27.5 5.65625ZM35.591 33.659C35.7507 33.8187 35.8774 34.0083 35.9638 34.2169C36.0502 34.4255 36.0947 34.6492 36.0947 34.875C36.0947 35.1008 36.0502 35.3245 35.9638 35.5331C35.8774 35.7417 35.7507 35.9313 35.591 36.091C35.4313 36.2507 35.2418 36.3774 35.0331 36.4638C34.8245 36.5502 34.6008 36.5947 34.375 36.5947C34.1492 36.5947 33.9256 36.5502 33.7169 36.4638C33.5083 36.3774 33.3187 36.2507 33.159 36.091L27.5 30.4299L21.841 36.091C21.6813 36.2507 21.4918 36.3774 21.2831 36.4638C21.0745 36.5502 20.8508 36.5947 20.625 36.5947C20.3992 36.5947 20.1756 36.5502 19.9669 36.4638C19.7583 36.3774 19.5687 36.2507 19.409 36.091C19.2493 35.9313 19.1226 35.7417 19.0362 35.5331C18.9498 35.3245 18.9053 35.1008 18.9053 34.875C18.9053 34.6492 18.9498 34.4255 19.0362 34.2169C19.1226 34.0083 19.2493 33.8187 19.409 33.659L25.0701 28L19.409 22.341C19.0865 22.0185 18.9053 21.5811 18.9053 21.125C18.9053 20.6689 19.0865 20.2315 19.409 19.909C19.7315 19.5865 20.1689 19.4053 20.625 19.4053C21.0811 19.4053 21.5185 19.5865 21.841 19.909L27.5 25.5701L33.159 19.909C33.3187 19.7493 33.5083 19.6226 33.7169 19.5362C33.9256 19.4498 34.1492 19.4053 34.375 19.4053C34.6008 19.4053 34.8245 19.4498 35.0331 19.5362C35.2418 19.6226 35.4313 19.7493 35.591 19.909C35.7507 20.0687 35.8774 20.2583 35.9638 20.4669C36.0502 20.6755 36.0947 20.8992 36.0947 21.125C36.0947 21.3508 36.0502 21.5745 35.9638 21.7831C35.8774 21.9917 35.7507 22.1813 35.591 22.341L29.9299 28L35.591 33.659Z" fill="#DC2626"/>
</g>
<defs>
<clipPath id="clip0_3761_8750">
<rect width="55" height="55" fill="white" transform="translate(0 0.5)"/>
</clipPath>
</defs>
</svg>
